<svg id="Layer_1" data-name="Layer 1" xmlns="http://www.w3.org/2000/svg" viewBox="0 0 407.62 136.41"><defs><style>.cls-1,.cls-6{fill:#de5735;}.cls-2,.cls-5{fill:#3b3023;}.cls-3{fill:#fff;}.cls-4,.cls-5,.cls-6{isolation:isolate;}.cls-5,.cls-6{font-size:60px;letter-spacing:0.05em;}.cls-5{font-family:Athelas-Bold, Athelas;font-weight:700;}.cls-6{font-family:Athelas-Regular, Athelas;}</style></defs><rect class="cls-1" x="93.26" width="10.29" height="53.99" rx="5.14"/><rect class="cls-1" x="46.85" y="30.76" width="105.65" height="105.65" rx="12"/><polygon class="cls-2" points="109.09 44.13 103.38 62.45 89.49 62.45 95.26 44.13 109.09 44.13"/><polygon class="cls-2" points="117.5 80.69 110.82 91.86 119.08 106.37 122.25 106.37 126.29 119.03 112.05 119.03 96.4 91.77 112.22 64.69 126.29 64.69 143.35 119.03 129.46 119.03 117.5 80.69"/><polygon class="cls-3" points="81.84 77.35 78.67 77.35 70.23 91.95 76.74 102.67 88.69 64.69 102.76 64.69 118.59 91.77 102.94 119.03 88.69 119.03 92.74 106.37 95.9 106.37 104.17 91.86 97.49 80.69 85.53 119.03 71.64 119.03 55.99 91.86 71.11 64.69 85.59 64.69 81.84 77.35"/><rect class="cls-1" x="145.35" y="78.44" width="26.99" height="10.29" rx="5.14"/><rect class="cls-1" y="78.44" width="53.99" height="10.29" rx="5.14"/><g class="cls-4"><text class="cls-5" transform="translate(181.78 102)">Diff</text><text class="cls-6" transform="translate(298.12 102)">M</text><text class="cls-6" transform="translate(355.12 102)">a</text><text class="cls-6" transform="translate(386.2 102)">t</text></g></svg>